<svg version="1.1" id="Layer_1" xmlns="http://www.w3.org/2000/svg" xmlns:xlink="http://www.w3.org/1999/xlink" x="0px" y="0px"
	 width="100%" viewBox="0 0 1024 1024" enable-background="new 0 0 1024 1024" xml:space="preserve">
<path fill="#FD4849" opacity="1.000000" stroke="none"
	d="
M822.872070,854.758423
	C634.083679,854.758423 445.295258,854.758423 256.153534,854.758423
	C256.153534,746.533997 256.153534,638.822998 256.153534,530.283752
	C258.391815,531.321594 260.178894,532.000244 261.821198,532.933594
	C312.054932,561.481506 362.188538,590.206909 412.523987,618.574158
	C451.249054,640.398071 490.356903,661.543457 529.054504,683.415283
	C571.524536,707.419312 613.789795,731.788574 656.016357,756.219849
	C709.627991,787.238220 763.110901,818.479187 816.649658,849.623596
	C818.737915,850.838379 820.829834,852.046997 822.999756,853.733704
	C823.010315,854.392029 822.941223,854.575256 822.872070,854.758423
z"/>
<path fill="#35EAFD" opacity="1.000000" stroke="none" 
	d="
M574.951233,170.861038 
	C585.080566,170.873352 595.228333,170.496033 605.335754,170.973007 
	C632.709900,172.264755 657.793091,181.122864 681.110168,195.166260 
	C714.773071,215.440704 740.329834,243.063568 755.047668,279.750641 
	C779.971497,341.878082 761.910522,413.228943 711.174622,456.971252 
	C686.254333,478.456543 658.163208,492.913940 625.586670,498.352997 
	C587.846130,504.654236 552.198792,499.097443 518.468506,480.580383 
	C463.035187,450.148895 407.327118,420.218231 351.844757,389.875519 
	C320.598511,372.787292 289.571106,355.298767 258.453156,337.976227 
	C257.736633,337.577301 257.115631,337.006775 256.658813,335.916992 
	C279.238739,322.889526 301.627869,310.493561 323.976532,298.025024 
	C352.134766,282.315186 380.271240,266.566254 408.395782,250.796219 
	C430.280151,238.525177 452.125885,226.185303 474.000244,213.896393 
	C488.347626,205.836090 502.778961,197.922943 517.058167,189.743973 
	C535.068054,179.428162 554.679565,174.167450 574.951233,170.861038 
M626.186584,270.212280 
	C614.514954,265.490204 602.577637,264.074219 590.009399,265.977356 
	C559.777527,270.555267 534.634033,298.786041 534.100830,329.312958 
	C533.335449,373.133392 574.438232,405.758514 616.997070,395.111389 
	C646.366760,387.763855 667.490234,362.386749 667.510315,332.207886 
	C667.529663,303.215424 652.812927,282.932709 626.186584,270.212280 
z"/>
<path fill="#FD4949" opacity="1.000000" stroke="none" 
	d="
M574.818970,170.921783 
	C554.679565,174.167450 535.068054,179.428162 517.058167,189.743973 
	C502.778961,197.922943 488.347626,205.836090 474.000244,213.896393 
	C452.125885,226.185303 430.280151,238.525177 408.395782,250.796219 
	C380.271240,266.566254 352.134766,282.315186 323.976532,298.025024 
	C301.627869,310.493561 279.238739,322.889526 256.566742,335.536194 
	C256.114441,329.930756 255.837234,324.106995 255.831268,318.282959 
	C255.782639,270.801208 255.784653,223.319351 255.771347,175.837524 
	C255.770981,174.531311 255.771317,173.225113 255.771317,171.354874 
	C257.902618,171.354874 259.672150,171.355759 261.441711,171.354767 
	C358.903687,171.300568 456.365662,171.250244 553.827637,171.183365 
	C560.780701,171.178589 567.733704,171.052322 574.818970,170.921783 
z"/>
<path fill="#FB9195" opacity="1.000000" stroke="none" 
	d="
M823.124146,854.828003 
	C822.941223,854.575256 823.010315,854.392029 823.268066,853.982300 
	C823.429810,854.136292 823.403015,854.516968 823.124146,854.828003 
z"/>

</svg>