<?xml version="1.0" standalone="no"?>
<!DOCTYPE svg PUBLIC "-//W3C//DTD SVG 20010904//EN"
        "http://www.w3.org/TR/2001/REC-SVG-20010904/DTD/svg10.dtd">
<svg version="1.0" xmlns="http://www.w3.org/2000/svg"
     width="1536.000000pt" height="1024.000000pt" viewBox="0 0 1536.000000 1024.000000"
     preserveAspectRatio="xMidYMid meet">

    <g transform="translate(0.000000,1024.000000) scale(0.100000,-0.100000)"
       fill="currentColor" stroke="none">
        <path d="M5780 10033 c-166 -20 -360 -72 -615 -164 -299 -109 -603 -343 -879
-678 -84 -103 -115 -145 -264 -365 -125 -186 -253 -468 -277 -611 -4 -22 -13
-74 -21 -115 -19 -94 -33 -347 -34 -595 -1 -221 8 -265 70 -343 l40 -50 -34
-56 c-19 -31 -42 -89 -51 -129 -31 -129 -53 -176 -83 -183 -304 -64 -511 -285
-526 -561 -6 -99 6 -167 39 -233 27 -53 106 -157 135 -177 20 -14 19 -15 -19
-61 -73 -89 -102 -147 -214 -437 -56 -143 -77 -186 -124 -257 -68 -104 -164
-168 -258 -171 -57 -2 -91 23 -130 98 -25 49 -30 70 -29 126 0 57 7 80 42 153
54 112 152 218 184 199 4 -2 -8 -25 -26 -51 -75 -105 -103 -200 -72 -247 22
-33 60 -33 82 1 13 19 14 28 6 33 -9 5 -10 21 -2 59 13 72 52 144 96 179 38
30 38 30 26 72 -14 46 -38 58 -96 47 -41 -8 -118 -48 -160 -83 -49 -40 -102
-128 -131 -217 -22 -65 -28 -99 -28 -172 0 -53 6 -101 13 -115 61 -116 149
-176 242 -164 75 9 118 24 156 52 l33 25 -16 -38 c-31 -75 -131 -186 -209
-233 -84 -50 -171 -71 -297 -71 -80 0 -124 5 -175 21 -84 26 -182 87 -213 134
-31 46 -50 152 -50 280 0 83 4 110 23 158 41 99 88 169 171 253 68 69 96 88
180 129 145 70 250 95 419 102 91 4 167 1 222 -7 92 -14 118 -7 112 34 -10 69
-372 82 -581 21 -211 -61 -333 -128 -423 -233 -176 -206 -232 -370 -204 -597
14 -111 38 -163 110 -235 97 -96 247 -150 417 -150 170 1 340 67 445 173 71
72 93 108 164 273 102 235 115 268 171 414 75 198 112 275 175 367 29 43 54
80 55 82 1 2 40 -9 85 -24 169 -56 334 -43 507 41 196 95 311 266 336 499 19
166 -64 321 -229 431 -63 42 -169 80 -248 89 -33 4 -58 12 -58 19 1 18 47 172
60 198 7 12 23 35 37 49 l24 26 67 -27 c407 -166 708 -218 1200 -207 312 6
441 24 757 103 l139 35 18 -23 c10 -13 30 -60 44 -106 25 -79 26 -90 19 -205
-14 -227 -14 -232 16 -235 33 -4 46 24 65 138 24 145 19 217 -22 341 -20 60
-34 115 -31 122 3 7 35 31 72 52 139 81 216 193 265 380 25 96 51 136 150 236
102 103 162 131 291 137 119 5 199 -14 419 -100 352 -137 599 -208 805 -233
434 -52 797 53 1132 326 200 164 624 662 708 834 19 39 63 113 98 167 34 53
74 119 89 147 34 62 40 62 188 25 89 -22 119 -25 214 -22 98 4 120 8 188 37
129 55 212 146 243 270 20 78 14 138 -24 218 -72 151 -262 244 -496 244 -292
-1 -495 -152 -495 -370 l0 -58 -69 -31 c-38 -17 -113 -47 -167 -66 -55 -19
-130 -47 -169 -61 -71 -27 -197 -59 -270 -70 -22 -4 -56 -10 -75 -15 -141 -37
-302 -53 -520 -54 -137 0 -248 4 -285 12 -33 6 -78 14 -99 18 -22 3 -80 18
-130 34 -248 76 -419 169 -884 479 -366 244 -560 351 -783 431 -176 64 -292
82 -529 85 -113 2 -221 1 -240 -2z m430 -94 c36 -6 83 -13 105 -16 80 -11 263
-73 386 -131 162 -76 323 -174 639 -387 459 -308 727 -437 1032 -496 95 -18
149 -22 343 -22 133 0 264 5 310 12 103 16 344 64 460 91 109 26 374 119 468
164 l69 33 22 -36 c13 -20 42 -53 66 -74 l42 -39 -30 -41 c-16 -23 -44 -70
-61 -105 -18 -35 -47 -84 -65 -110 -19 -26 -44 -67 -56 -92 -41 -81 -179 -279
-243 -348 -34 -37 -107 -121 -162 -187 -149 -179 -312 -331 -453 -421 -99 -64
-275 -143 -378 -170 -179 -47 -474 -47 -694 1 -144 31 -330 86 -442 131 -332
135 -493 178 -638 171 -158 -8 -241 -49 -396 -196 -67 -64 -113 -98 -180 -132
-286 -149 -798 -229 -1374 -216 -135 3 -275 10 -310 16 -36 6 -123 20 -195 31
-238 38 -431 96 -605 183 l-85 42 0 145 c1 419 131 805 381 1131 24 31 59 83
78 115 73 124 349 418 517 551 221 175 628 338 979 393 41 7 82 13 90 15 40 8
323 3 380 -6z m4446 -345 c129 -29 217 -94 262 -192 43 -95 13 -203 -81 -288
-78 -70 -139 -89 -287 -89 -130 0 -202 16 -303 67 -220 110 -208 371 22 476
31 14 72 29 91 33 66 13 228 9 296 -7z m-6763 -2150 c189 -87 352 -132 627
-174 202 -31 378 -40 650 -35 548 10 852 63 1219 213 22 9 6 -71 -31 -147 -57
-120 -164 -203 -333 -260 -113 -37 -293 -81 -452 -108 -152 -27 -171 -28 -508
-28 -242 0 -376 4 -435 13 -213 34 -498 115 -655 187 -47 21 -86 49 -120 84
-71 74 -71 74 -82 219 -5 64 -3 82 7 82 7 0 58 -21 113 -46z m25 -800 c91 -30
191 -104 234 -174 75 -123 76 -306 1 -454 -79 -156 -295 -275 -498 -276 -180
0 -363 107 -436 256 -31 62 -32 67 -26 161 9 165 65 280 182 373 163 130 367
173 543 114z"/>
        <path d="M3619 6330 c-66 -31 -102 -88 -96 -158 6 -84 65 -145 155 -158 57 -9
115 19 151 71 34 50 40 148 12 192 -41 65 -142 89 -222 53z"/>
        <path d="M12120 8844 c-85 -22 -245 -105 -350 -180 -119 -85 -293 -253 -320
-308 -49 -102 -6 -176 103 -176 48 0 142 28 181 54 40 26 61 63 46 81 -14 17
-56 20 -65 5 -23 -37 -183 -77 -199 -51 -14 22 23 73 132 182 154 153 302 249
466 305 105 36 146 32 171 -17 43 -82 -16 -323 -137 -564 -175 -347 -609 -782
-1098 -1100 -179 -116 -354 -216 -595 -340 -194 -99 -206 -104 -160 -64 104
90 320 308 391 396 284 351 429 684 400 916 -25 195 -227 128 -291 -95 -21
-74 -8 -138 29 -138 25 0 36 17 36 54 0 56 33 132 77 175 41 41 45 43 60 28
32 -32 15 -192 -37 -341 -55 -162 -265 -470 -462 -681 -162 -174 -561 -500
-748 -612 -151 -91 -308 -161 -453 -202 -138 -39 -167 -53 -167 -76 0 -31 78
-33 169 -5 35 11 65 19 67 17 7 -7 -385 -217 -466 -250 -118 -48 -256 -91
-423 -131 -173 -42 -181 -43 -337 -51 -166 -9 -194 -15 -204 -41 -16 -41 31
-56 136 -43 46 5 129 14 185 19 126 11 335 59 518 117 199 64 459 202 718 382
246 171 480 305 774 445 292 138 389 153 479 74 l33 -29 -51 -72 c-100 -143
-296 -321 -598 -543 -164 -121 -465 -296 -625 -365 -60 -26 -166 -71 -235
-101 -485 -213 -989 -308 -1627 -308 -305 0 -540 17 -763 56 -148 26 -453 96
-502 115 -40 16 -80 4 -76 -23 4 -29 73 -55 265 -102 394 -95 623 -120 1093
-121 381 0 510 10 804 61 349 61 583 135 1075 344 273 115 558 300 881 571
185 155 368 361 371 418 0 12 3 11 9 -4 14 -31 11 -163 -4 -236 -35 -164 -138
-340 -290 -493 -205 -207 -467 -408 -746 -571 -93 -54 -125 -68 -170 -72 -75
-8 -117 -47 -74 -71 12 -6 -10 -12 -74 -21 -49 -6 -104 -16 -121 -22 -35 -12
-54 -38 -42 -57 9 -15 141 -19 246 -9 95 10 70 0 -200 -78 -121 -35 -353 -109
-515 -164 -1150 -392 -1631 -416 -2499 -124 -200 67 -225 73 -239 60 -8 -9
-12 -22 -9 -29 9 -24 320 -139 517 -193 114 -31 298 -71 360 -79 25 -4 74 -12
110 -18 73 -14 387 -17 524 -5 104 8 352 49 474 78 158 37 435 120 762 229
179 60 469 152 645 204 176 52 379 115 450 140 232 79 527 183 655 231 149 55
183 58 241 16 44 -33 80 -39 97 -18 15 17 -4 48 -52 86 -92 73 -71 78 -871
-208 -309 -111 -283 -104 -287 -78 -2 18 -11 23 -42 25 l-39 3 69 36 c145 74
363 209 484 301 163 123 426 367 511 473 153 192 235 433 210 621 -19 143 -83
230 -193 262 l-39 12 53 24 c134 62 422 240 598 369 246 180 393 312 569 505
154 172 182 206 258 321 113 169 173 307 228 519 72 283 -12 409 -235 350z"/>
        <path d="M13019 8845 c-62 -23 -111 -59 -197 -147 -174 -178 -257 -361 -207
-458 15 -29 23 -33 82 -45 43 -9 133 21 178 58 29 24 33 32 25 48 -14 25 -33
24 -103 -5 -41 -16 -67 -22 -85 -17 -24 7 -27 12 -24 47 10 118 158 315 311
416 85 55 122 61 147 23 26 -41 12 -123 -51 -291 -104 -277 -210 -442 -435
-679 -48 -49 -115 -121 -151 -159 -132 -141 -241 -221 -534 -394 -33 -19 -70
-44 -82 -55 -26 -23 -30 -55 -8 -63 34 -13 294 131 458 254 123 92 443 415
548 552 217 284 386 703 340 843 -19 57 -62 87 -124 86 -29 0 -68 -6 -88 -14z"/>
        <path d="M12932 7764 c-93 -24 -279 -163 -314 -234 -22 -45 -12 -86 24 -101
39 -16 84 -14 114 6 34 22 26 37 -25 50 l-44 10 66 62 c111 104 260 162 298
117 11 -14 8 -27 -24 -88 -35 -67 -110 -159 -314 -384 -126 -139 -288 -252
-528 -368 -323 -156 -739 -264 -1023 -264 -154 0 -195 -17 -151 -61 21 -21 28
-21 183 -16 177 6 308 28 572 97 174 45 301 93 493 188 260 129 411 248 635
502 216 244 254 305 241 387 -7 47 -48 102 -77 104 -7 0 -27 2 -43 3 -17 2
-54 -3 -83 -10z"/>
        <path d="M10265 7694 c-49 -13 -128 -36 -175 -53 -47 -16 -123 -43 -170 -59
-135 -47 -513 -189 -650 -244 -553 -222 -749 -333 -1218 -687 -494 -373 -684
-482 -1062 -612 -117 -41 -224 -65 -365 -84 -99 -13 -123 -20 -138 -37 -17
-20 -17 -22 -2 -31 63 -35 415 26 623 107 372 145 497 221 1027 617 387 290
532 377 870 524 441 192 1201 474 1320 491 l50 7 -20 -23 c-39 -44 -176 -139
-287 -199 -62 -33 -372 -189 -688 -348 -316 -159 -608 -309 -647 -333 -92 -57
-168 -131 -246 -240 -91 -128 -149 -192 -261 -288 -248 -214 -450 -336 -741
-446 -120 -46 -177 -61 -335 -91 -46 -9 -88 -19 -92 -21 -14 -9 -9 -54 7 -60
27 -11 257 38 396 83 142 46 364 149 484 223 234 146 521 406 603 547 88 151
255 268 467 327 55 15 156 45 225 66 122 37 125 39 125 66 0 28 -1 29 -48 27
-48 -1 -47 0 86 62 75 35 162 77 194 94 32 17 149 75 260 130 441 218 646 385
576 469 -31 38 -69 41 -168 16z"/>
        <path d="M7753 7410 c-62 -27 -114 -65 -265 -191 -292 -243 -430 -315 -730
-378 -210 -45 -337 -112 -471 -249 -57 -58 -60 -85 -9 -90 28 -3 39 4 80 45
52 54 140 117 217 155 59 29 109 44 306 91 92 22 178 50 233 75 103 49 257
148 347 224 273 231 389 301 389 235 0 -42 -87 -170 -192 -282 -21 -22 -38
-43 -38 -47 0 -15 -230 -213 -305 -263 -89 -59 -108 -69 -345 -183 -192 -93
-239 -126 -286 -203 -19 -32 -41 -60 -49 -63 -20 -7 -19 -42 1 -50 40 -15 73
-6 98 27 15 19 26 39 26 45 0 33 84 89 293 193 255 128 379 206 497 316 105
98 294 314 338 387 56 92 56 172 -1 206 -40 25 -80 25 -134 0z"/>
        <path d="M13038 7231 c-86 -28 -138 -62 -231 -154 -71 -69 -88 -92 -101 -135
-17 -60 -11 -91 26 -116 45 -32 139 -10 153 35 10 31 -16 55 -43 40 -26 -14
-62 -14 -62 0 0 6 13 29 29 52 78 114 222 211 304 205 41 -3 42 -4 41 -39 -2
-74 -142 -279 -333 -486 -263 -286 -554 -501 -926 -683 -284 -140 -533 -220
-980 -315 -143 -31 -192 -49 -201 -77 -14 -44 10 -46 171 -13 206 41 606 152
755 209 423 160 788 383 1074 656 331 316 528 587 528 726 0 61 -15 81 -74 99
-62 18 -59 18 -130 -4z"/>
        <path d="M5160 6593 c-211 -44 -389 -209 -435 -405 -53 -226 42 -454 231 -555
195 -104 417 -111 594 -17 133 69 211 190 250 384 25 123 24 162 -7 254 -45
134 -135 237 -266 301 -115 56 -225 68 -367 38z m230 -77 c125 -30 216 -92
278 -189 51 -80 66 -146 59 -257 -10 -162 -90 -310 -202 -376 -184 -107 -463
-75 -611 71 -57 57 -111 158 -119 226 -9 70 11 192 42 257 38 78 140 179 223
219 66 33 176 61 240 62 19 0 60 -6 90 -13z"/>
        <path d="M5174 6191 c-151 -68 -120 -283 43 -298 101 -10 174 53 181 157 8
104 -40 160 -135 160 -26 0 -66 -9 -89 -19z"/>
        <path d="M2262 6146 c-23 -8 -58 -26 -77 -40 -25 -19 -46 -26 -80 -26 -58 0
-102 -19 -152 -63 -23 -22 -54 -38 -78 -42 -86 -16 -161 -82 -180 -158 -8 -32
-19 -40 -70 -55 -61 -18 -111 -64 -130 -122 -15 -44 -15 -59 -4 -120 l12 -70
-57 -60 c-98 -102 -131 -211 -91 -299 l18 -40 -36 -53 c-61 -91 -69 -168 -24
-250 11 -20 33 -46 48 -57 33 -25 36 -43 13 -97 -21 -50 -15 -135 13 -172 28
-39 108 -90 151 -97 82 -13 79 -10 91 -76 10 -51 20 -68 56 -104 59 -60 123
-79 214 -64 60 9 67 8 79 -8 62 -89 82 -110 123 -131 97 -48 204 -39 304 28
l58 39 49 -20 c130 -51 261 -11 344 105 l21 30 99 -3 c114 -2 380 22 492 45
194 39 418 137 559 243 101 76 217 198 233 245 17 52 10 81 -19 81 -19 0 -30
-11 -48 -45 -44 -84 -201 -223 -333 -297 -128 -71 -315 -133 -475 -158 -55 -9
-194 -18 -310 -21 -115 -3 -219 -7 -230 -9 -12 -2 -35 -25 -53 -50 -17 -25
-53 -59 -79 -76 -64 -41 -132 -38 -197 9 -24 18 -51 32 -60 32 -8 0 -38 -20
-66 -45 -60 -53 -95 -72 -147 -81 -76 -12 -183 66 -199 144 -9 43 -48 59 -99
38 -55 -23 -126 -23 -166 0 -53 31 -82 81 -74 129 3 22 7 54 8 70 l2 30 -90 5
c-112 7 -168 32 -184 83 -13 39 -9 54 36 125 18 29 33 56 33 61 0 4 -18 21
-40 36 -22 15 -57 46 -76 68 -34 37 -36 43 -30 85 8 56 48 102 116 131 34 15
51 29 60 51 16 38 7 49 -57 70 -65 21 -71 36 -43 106 29 71 86 130 158 163 58
27 64 41 27 65 -57 37 -81 119 -52 176 21 41 74 70 128 70 71 0 81 6 73 46 -8
45 0 76 32 113 32 38 77 47 134 28 62 -21 83 -13 76 28 -14 73 79 112 177 75
52 -20 89 -25 99 -14 3 3 -1 19 -10 36 -14 29 -14 32 3 45 24 17 89 17 123 -1
15 -8 40 -28 56 -45 17 -17 36 -31 43 -31 7 0 53 18 102 40 49 22 94 40 100
40 15 0 168 -77 204 -102 26 -19 29 -19 52 -4 41 27 32 51 -32 84 -32 16 -83
43 -113 60 -71 40 -117 45 -193 22 -104 -30 -104 -30 -173 2 -77 36 -133 43
-192 24z"/>
        <path d="M10592 5180 c-107 -32 -181 -73 -337 -188 -209 -155 -398 -283 -478
-325 -37 -20 -91 -57 -119 -82 -67 -60 -195 -135 -232 -135 -21 0 -38 -10 -63
-39 -49 -58 -151 -124 -180 -116 -29 7 -45 -1 -126 -68 -93 -77 -135 -93 -200
-80 -47 10 -56 8 -102 -15 -27 -14 -94 -54 -148 -90 -97 -65 -97 -65 -137 -53
-43 13 -57 9 -78 -21 -7 -10 -18 -18 -24 -18 -7 0 -43 -17 -82 -37 -63 -33
-81 -37 -158 -40 -94 -4 -155 -21 -202 -57 -84 -63 -129 -70 -179 -26 -70 61
-117 64 -184 12 -60 -48 -155 -112 -165 -112 -5 0 -8 8 -8 18 0 28 -42 62 -76
62 -16 0 -69 -17 -118 -39 l-90 -38 -44 19 c-55 25 -76 18 -183 -57 -44 -31
-86 -58 -93 -61 -8 -3 -33 8 -57 25 -56 41 -88 40 -186 -11 l-82 -42 -106 18
c-87 15 -109 16 -123 5 -30 -23 -42 -42 -42 -66 0 -24 -1 -24 -107 -23 -219 3
-520 53 -727 121 -135 44 -318 133 -430 208 -101 69 -242 187 -288 242 -108
129 -152 191 -186 259 -31 62 -41 75 -61 75 -64 0 -49 -57 58 -220 263 -403
774 -683 1356 -744 402 -42 681 -33 1090 34 211 35 368 78 530 143 l140 57
106 -1 c128 -1 139 -7 339 -155 154 -114 351 -303 481 -462 76 -92 87 -111 79
-128 -10 -17 -22 -19 -123 -19 -173 -1 -258 -29 -351 -118 -78 -76 -97 -147
-52 -199 19 -22 35 -29 79 -33 l56 -5 -167 -155 c-248 -231 -252 -235 -252
-259 0 -14 28 -53 69 -99 39 -42 83 -94 98 -114 38 -49 230 -290 323 -403 41
-50 111 -136 155 -190 44 -54 142 -171 218 -261 149 -175 140 -169 257 -179
292 -25 537 -47 655 -61 77 -8 169 -14 204 -12 59 3 65 5 66 26 1 13 10 31 21
41 10 10 51 47 89 82 39 35 128 117 198 184 70 66 132 121 137 123 6 2 88 -61
182 -140 452 -376 776 -622 914 -693 38 -20 89 -49 114 -65 40 -26 49 -29 80
-20 34 10 222 30 465 50 160 13 372 16 403 6 26 -9 62 16 62 42 0 28 282 295
440 417 240 186 428 338 509 412 85 79 88 98 18 129 -196 85 -608 355 -892
584 -60 49 -171 135 -246 191 -122 92 -136 105 -125 121 16 27 -16 48 -73 48
-25 0 -154 18 -286 40 -132 22 -297 46 -367 52 l-128 12 8 41 c4 22 7 87 6
145 0 114 -12 150 -61 196 -38 35 -98 33 -151 -5 -74 -54 -146 -184 -182 -326
-24 -99 -38 -262 -27 -334 4 -30 5 -56 3 -59 -3 -2 -18 11 -33 29 -93 112
-408 420 -650 634 -55 50 -171 155 -257 235 -142 132 -154 146 -134 153 52 19
188 89 188 98 0 13 -36 29 -68 29 -16 0 -51 -11 -78 -25 -80 -42 -431 -126
-606 -145 -57 -7 -151 -17 -211 -24 -59 -7 -106 -10 -104 -7 91 164 125 336
83 428 -18 41 -19 42 -82 48 -85 10 -114 -8 -179 -106 -58 -88 -122 -289 -133
-413 l-7 -80 -26 40 c-47 70 -191 237 -289 333 -99 98 -315 276 -387 320 -23
14 -42 28 -42 31 0 3 33 26 73 53 70 46 75 47 148 47 85 0 158 21 246 72 43
24 66 31 100 29 24 -1 73 8 109 20 52 17 77 33 117 74 28 29 60 57 71 63 11 5
54 10 95 9 62 0 86 5 140 30 36 16 82 44 102 61 19 18 41 32 47 32 21 0 114
42 156 71 22 14 59 44 81 66 28 28 53 42 81 46 44 7 131 60 212 130 30 26 87
66 125 89 106 62 300 193 392 263 228 176 375 255 485 263 62 4 73 2 109 -22
50 -33 76 -84 101 -196 28 -130 51 -183 162 -375 49 -85 181 -220 256 -260 29
-16 48 -31 43 -33 -6 -2 -21 4 -34 12 -43 28 -175 49 -267 43 -216 -15 -340
-167 -194 -238 23 -11 43 -22 43 -24 0 -2 -64 -56 -142 -120 -211 -173 -258
-222 -258 -263 0 -44 54 -96 300 -290 102 -80 272 -218 379 -307 318 -263 394
-324 433 -351 l37 -26 151 11 c83 7 199 14 258 16 59 3 170 10 246 16 77 6
166 8 197 4 32 -4 67 -4 78 0 27 8 27 41 1 55 -11 6 -20 16 -20 21 0 26 341
400 661 724 295 300 399 413 399 434 0 26 -17 43 -125 124 -55 41 -157 120
-227 176 -70 55 -217 167 -325 249 -395 296 -444 329 -476 316 -14 -5 -106
-103 -505 -535 -41 -44 -45 -47 -110 -52 -37 -3 -123 -13 -190 -22 -68 -9
-126 -14 -130 -11 -3 4 8 21 24 39 68 72 184 269 184 311 0 10 9 15 28 14 73
-4 299 55 393 103 119 59 294 212 335 291 22 43 15 97 -17 121 -61 45 -153 35
-282 -29 -92 -46 -232 -185 -297 -294 -32 -53 -55 -80 -80 -93 l-35 -17 -5 53
c-6 64 -20 83 -71 99 -58 17 -108 -2 -161 -61 -56 -62 -142 -234 -165 -328
-10 -40 -21 -73 -24 -73 -17 0 -105 69 -149 117 -115 126 -177 244 -241 458
-59 199 -72 221 -162 268 -54 28 -135 31 -215 7z m1812 -160 c14 -5 26 -17 26
-26 0 -21 -110 -134 -184 -191 -98 -73 -286 -157 -286 -127 0 3 14 32 30 63
62 115 173 214 299 267 63 26 79 28 115 14z m182 -353 c49 -35 141 -103 205
-153 685 -526 734 -564 734 -575 0 -5 -122 -131 -270 -281 -149 -150 -297
-302 -330 -338 -33 -36 -83 -90 -110 -120 -28 -30 -84 -95 -125 -145 -115
-139 -213 -245 -226 -245 -7 0 -46 30 -87 68 -77 70 -98 88 -313 267 -160 134
-262 217 -461 374 -84 67 -153 123 -153 127 0 3 113 120 252 260 l251 254 64
0 c35 0 107 5 161 12 53 7 112 12 130 12 30 0 32 2 32 34 0 33 -1 34 -32 29
-18 -4 -91 -9 -163 -13 l-130 -6 71 73 c296 308 394 412 394 420 0 18 19 8
106 -54z m-895 9 c10 -35 -26 -140 -78 -228 -65 -112 -178 -227 -200 -205 -11
12 41 169 91 272 81 171 166 243 187 161z m-479 -466 c42 -12 104 -59 91 -70
-40 -33 -350 -50 -401 -21 -23 12 -23 13 -5 33 19 22 68 46 118 58 45 12 155
11 197 0z m442 -242 c-99 -101 -202 -209 -228 -240 l-48 -58 -144 0 c-79 0
-144 3 -144 8 0 4 43 57 95 117 52 61 119 139 149 175 110 132 116 136 246
154 291 40 283 56 74 -156z m-415 5 c-76 -78 -196 -218 -239 -280 -14 -20 -26
-22 -210 -29 l-195 -7 20 23 c11 13 76 69 145 125 69 57 152 128 184 158 l60
55 95 7 c53 4 119 13 146 20 28 7 57 14 65 14 8 1 -24 -38 -71 -86z m-3909
-288 c7 -9 11 -17 9 -19 -17 -17 -136 -56 -166 -55 -21 0 -31 3 -23 6 8 3 35
19 58 36 37 25 77 42 103 46 4 1 12 -6 19 -14z m-272 -73 c2 -6 -9 -14 -25
-17 -15 -3 -47 -12 -70 -20 -61 -20 -61 -3 -1 39 46 32 54 34 72 23 11 -8 22
-19 24 -25z m4417 -87 c73 -57 204 -162 340 -274 26 -21 252 -212 370 -311 50
-42 111 -92 137 -112 l46 -36 -126 -6 c-256 -14 -429 -26 -500 -37 l-72 -10
-123 102 c-67 57 -176 148 -242 204 -66 55 -185 152 -265 216 -80 63 -203 161
-273 217 l-129 102 115 0 c63 0 136 3 162 7 46 6 47 5 36 -15 -13 -24 -15 -88
-3 -96 22 -14 50 7 57 42 15 79 10 77 240 77 l141 0 89 -70z m-4776 31 c18
-21 -27 -42 -107 -50 -63 -6 -79 6 -24 19 15 3 38 14 52 25 30 23 63 26 79 6z
m-353 -51 c18 -13 17 -14 -18 -15 -36 0 -54 10 -41 24 11 11 38 7 59 -9z
m2630 -10 c14 -21 16 -40 11 -103 -12 -140 -55 -239 -153 -347 -35 -38 -64
-75 -64 -82 0 -12 -30 -33 -48 -33 -19 0 14 232 50 349 57 186 156 290 204
216z m552 -527 c-90 -90 -188 -190 -218 -223 -164 -182 -465 -494 -488 -506
-15 -7 -38 -27 -52 -43 l-26 -29 -126 14 -127 14 38 110 c40 117 186 422 223
467 22 26 36 29 248 63 124 20 244 36 268 36 34 1 42 4 42 19 0 22 -47 40
-104 40 -23 0 -104 -9 -181 -20 -77 -11 -155 -20 -174 -20 l-35 0 30 33 c17
17 40 46 52 63 21 30 24 31 124 38 207 14 441 51 583 90 28 8 58 15 68 15 11
1 -46 -63 -145 -161z m333 56 c376 -336 949 -889 1036 -1000 l33 -42 -73 -58
c-103 -84 -341 -289 -412 -355 -71 -66 -444 -412 -594 -551 -58 -54 -109 -98
-113 -98 -5 0 -29 33 -55 72 -25 40 -95 136 -155 213 -359 464 -515 671 -634
843 l-60 88 179 184 c98 100 281 292 407 425 240 254 334 345 354 345 7 0 46
-30 87 -66z m-1313 -208 c16 -17 15 -19 -23 -53 -72 -63 -179 -107 -304 -124
-55 -8 -81 -7 -102 2 -16 6 -29 14 -29 16 0 3 9 22 21 42 48 86 196 143 357
137 44 -1 67 -7 80 -20z m2680 -29 c49 -52 51 -177 5 -367 -38 -159 -103 -287
-188 -375 l-39 -40 -8 55 c-19 137 -20 245 -4 332 33 173 100 333 163 388 40
36 44 36 71 7z m-2588 -59 c-72 -122 -191 -397 -211 -489 l-11 -49 -112 0
c-62 0 -182 -3 -267 -7 l-154 -6 100 94 c55 51 144 139 198 195 96 100 101
104 180 130 110 36 185 76 249 134 29 27 54 49 56 50 2 0 -10 -24 -28 -52z
m2751 -348 c74 0 613 -80 625 -93 4 -4 -26 -33 -193 -191 l-71 -68 -179 -3
c-98 -2 -241 -6 -318 -10 l-140 -8 25 26 c39 39 98 152 131 251 16 50 32 97
35 105 3 11 7 12 16 3 7 -7 38 -12 69 -12z m793 -202 c44 -34 135 -105 202
-158 390 -308 582 -440 855 -591 71 -39 126 -75 123 -80 -9 -15 -245 -212
-339 -284 -49 -38 -105 -80 -124 -94 -135 -103 -301 -260 -401 -380 -41 -49
-81 -90 -88 -90 -18 -1 -76 37 -162 106 -41 33 -158 115 -260 183 -102 68
-221 149 -265 181 -225 164 -416 306 -471 349 l-62 48 287 284 c286 284 605
587 620 588 2 0 40 -28 85 -62z m-3787 -181 c-2 -103 1 -127 16 -150 9 -15 21
-27 25 -27 25 1 31 22 33 127 1 61 4 123 6 137 l5 26 134 0 c148 0 148 0 197
-80 39 -64 199 -284 277 -380 42 -52 142 -183 221 -290 80 -107 181 -238 225
-290 103 -123 129 -158 121 -166 -3 -3 -50 -1 -104 5 -188 22 -628 61 -683 61
-63 0 -65 1 -105 55 -16 22 -62 78 -101 125 -140 164 -472 568 -596 725 -48
61 -110 135 -137 165 -27 30 -47 57 -44 60 2 3 102 8 221 11 119 3 234 6 254
7 l36 2 -1 -123z m3024 -300 c-141 -139 -278 -268 -305 -285 -45 -29 -56 -32
-129 -32 l-79 0 7 57 c9 72 47 204 79 274 13 30 47 81 74 113 28 32 52 68 54
80 3 19 12 22 93 28 50 4 97 9 105 11 8 2 92 4 186 6 l171 2 -256 -254z m-456
193 c-8 -15 -17 -47 -21 -71 -4 -24 -22 -81 -40 -126 -30 -75 -70 -222 -76
-283 l-3 -25 -205 -6 c-113 -4 -225 -10 -250 -14 l-45 -6 25 21 c14 12 59 54
100 94 41 40 148 134 238 210 90 76 189 162 220 191 61 56 81 62 57 15z m233
-621 c188 -148 328 -254 472 -356 185 -132 578 -393 591 -393 5 0 9 -4 9 -8 0
-5 -62 -12 -137 -16 -167 -8 -406 -31 -528 -51 -84 -14 -92 -13 -115 4 -14 10
-81 53 -150 96 -150 94 -461 321 -559 408 -31 27 -365 292 -407 323 l-28 21
229 7 c126 3 232 3 237 -2 4 -4 12 -39 17 -78 15 -112 52 -184 97 -184 34 0
54 42 32 67 -33 37 -48 83 -48 142 l0 60 58 6 c31 3 66 7 77 9 64 10 77 5 153
-55z"/>
    </g>
</svg>
