<?xml version="1.0" standalone="no"?>
<!DOCTYPE svg PUBLIC "-//W3C//DTD SVG 20010904//EN"
        "http://www.w3.org/TR/2001/REC-SVG-20010904/DTD/svg10.dtd">
<svg version="1.0" xmlns="http://www.w3.org/2000/svg"
     width="1535.000000pt" height="1912.000000pt" viewBox="0 0 1535.000000 1912.000000"
     preserveAspectRatio="xMidYMid meet">

    <g transform="translate(0.000000,1912.000000) scale(0.100000,-0.100000)"
       fill="currentColor" stroke="none">
        <path d="M7191 18162 c-46 -25 -175 -103 -228 -137 -26 -16 -61 -38 -78 -49
-74 -43 -349 -327 -450 -466 -16 -23 -42 -55 -56 -73 -14 -18 -28 -36 -30 -42
-2 -5 -38 -62 -80 -125 -42 -63 -116 -187 -166 -275 -115 -205 -101 -180 -176
-330 -79 -160 -154 -304 -193 -370 -33 -55 -179 -350 -213 -430 -12 -27 -27
-59 -33 -70 -31 -54 -114 -297 -149 -435 -54 -216 -68 -315 -80 -545 -5 -110
-13 -258 -18 -330 -13 -203 5 -542 39 -745 5 -30 23 -181 40 -335 35 -314 55
-464 75 -545 7 -30 19 -80 25 -110 19 -86 141 -514 150 -525 5 -6 18 -35 29
-65 12 -30 26 -64 31 -75 5 -11 19 -42 31 -70 12 -27 45 -99 74 -160 28 -60
58 -126 65 -145 7 -19 19 -42 25 -50 6 -8 18 -31 25 -50 7 -19 32 -73 55 -120
61 -122 158 -325 190 -395 89 -198 143 -288 250 -414 95 -113 154 -166 212
-192 27 -12 69 -32 95 -44 l47 -22 -35 -34 c-19 -18 -44 -52 -55 -76 -11 -24
-26 -43 -32 -43 -56 -2 -174 -34 -232 -62 -107 -54 -116 -59 -185 -114 -107
-85 -159 -160 -209 -302 -31 -88 -33 -97 -28 -205 5 -127 24 -218 61 -294 15
-29 26 -55 26 -58 0 -3 18 -34 40 -69 42 -66 148 -168 188 -180 12 -4 22 -11
22 -15 0 -4 -20 -31 -45 -60 -25 -29 -45 -56 -45 -61 0 -38 -313 -361 -469
-483 -57 -45 -111 -87 -120 -92 -238 -148 -335 -182 -662 -230 -179 -26 -311
-15 -428 36 -74 31 -93 55 -213 269 -11 19 -29 51 -41 70 -42 71 -148 198
-247 295 -56 55 -136 143 -178 195 -223 279 -426 493 -582 613 -139 106 -175
132 -235 168 -174 105 -354 151 -591 151 -141 -1 -201 -11 -354 -62 -139 -47
-174 -66 -225 -123 -26 -29 -68 -74 -93 -100 -50 -53 -59 -92 -28 -126 15 -17
31 -20 95 -20 175 0 593 -105 816 -205 150 -68 333 -164 365 -191 8 -7 32 -23
54 -34 116 -65 378 -340 463 -488 51 -88 143 -292 143 -317 0 -10 15 -44 75
-171 18 -38 45 -96 59 -128 40 -91 122 -221 178 -282 28 -31 49 -57 47 -59 -7
-7 -204 -64 -259 -75 -435 -87 -540 -88 -773 -9 -107 37 -135 42 -233 46 -108
4 -111 3 -142 -23 -100 -84 26 -187 387 -314 80 -28 149 -51 154 -51 5 0 23
-6 40 -14 63 -28 244 -86 362 -115 213 -53 289 -63 470 -64 180 -1 217 4 540
79 220 52 295 76 450 149 61 28 144 60 185 69 41 10 125 43 188 73 63 30 118
53 123 51 10 -3 -25 -60 -80 -133 -17 -22 -37 -51 -43 -65 -7 -14 -33 -51 -58
-84 -25 -32 -58 -77 -74 -100 -94 -132 -209 -281 -268 -348 -55 -61 -83 -84
-142 -112 -40 -20 -78 -36 -83 -36 -15 0 -186 -115 -235 -159 -39 -34 -48 -49
-48 -75 0 -39 26 -66 64 -66 66 0 227 83 376 194 30 23 81 57 113 76 49 29
252 184 373 284 58 47 139 98 187 116 27 10 73 38 103 62 31 24 73 57 94 73
21 17 64 60 96 98 39 45 60 63 65 55 4 -7 9 -49 12 -94 4 -44 9 -99 13 -121 6
-37 3 -46 -25 -80 -17 -21 -31 -43 -31 -49 0 -11 -96 -104 -186 -180 -27 -23
-85 -59 -129 -82 -44 -22 -89 -49 -99 -61 -24 -27 -25 -75 -1 -101 24 -26 35
-25 35 4 0 20 6 24 44 29 112 16 183 38 213 68 39 37 97 57 187 65 57 5 75 11
95 31 21 22 30 24 97 21 69 -3 73 -2 79 20 3 13 13 22 24 22 29 0 41 -63 41
-214 0 -115 2 -136 15 -136 14 0 15 -28 10 -222 -3 -123 -8 -254 -10 -293 -5
-68 -51 -404 -60 -435 -11 -39 -76 -519 -85 -625 -16 -199 -63 -511 -95 -635
-9 -36 -39 -138 -66 -226 -46 -153 -63 -194 -154 -389 -20 -44 -45 -98 -55
-120 -35 -80 -74 -120 -157 -163 -108 -56 -174 -72 -333 -79 -152 -7 -248 5
-320 40 -82 40 -225 155 -259 206 -57 88 -65 123 -65 266 0 145 12 195 70 301
88 160 227 209 381 134 79 -39 146 -104 187 -181 27 -51 28 -60 22 -122 -10
-86 -32 -115 -101 -128 -57 -11 -88 -36 -87 -73 0 -47 28 -66 94 -66 72 0 119
22 175 83 50 54 58 86 58 224 l0 101 -53 77 c-32 48 -45 75 -35 70 34 -13 207
-18 249 -6 91 25 271 183 368 324 51 74 117 273 151 457 7 36 17 83 23 105 6
22 15 80 22 128 6 48 15 99 20 113 15 38 12 80 -6 95 -19 15 -18 18 31 209 26
105 39 181 46 275 5 72 12 158 15 193 8 75 -9 102 -61 102 -63 0 -82 -51 -95
-255 -18 -289 -144 -675 -242 -743 -67 -46 -209 -23 -271 44 -32 34 -59 118
-48 147 7 18 9 16 15 -13 14 -70 89 -106 129 -62 34 37 7 176 -44 229 -86 88
-195 45 -234 -91 -32 -109 3 -233 88 -318 72 -72 120 -91 244 -96 123 -5 136
-2 203 43 37 25 50 30 45 18 -3 -10 -11 -43 -16 -73 -14 -77 -67 -274 -89
-332 -10 -26 -31 -69 -46 -95 -38 -67 -188 -212 -253 -247 -50 -27 -59 -28
-132 -23 -81 7 -188 43 -222 76 -16 15 -17 25 -8 78 5 34 21 86 35 116 21 46
31 57 68 71 59 24 78 44 78 81 0 58 -54 83 -124 59 -120 -41 -197 -178 -200
-351 l-1 -84 -40 8 c-68 14 -177 8 -235 -11 -44 -15 -70 -34 -130 -95 -130
-132 -180 -253 -188 -461 -4 -115 -2 -147 16 -217 25 -99 88 -200 159 -256
206 -162 237 -179 365 -204 103 -19 377 -13 478 12 105 26 226 91 295 160 55
55 68 77 162 280 83 180 112 257 161 425 68 232 74 257 101 430 29 180 40 270
51 405 9 112 40 341 76 565 62 382 65 410 76 770 8 266 8 386 -1 479 -6 68 -9
126 -7 128 2 2 37 -5 77 -16 154 -40 495 -121 512 -121 9 0 17 -4 17 -10 0 -5
15 -10 34 -10 19 0 37 -4 41 -9 3 -5 35 -9 71 -8 59 0 68 -2 85 -24 10 -13 16
-31 13 -39 -13 -36 -36 -151 -43 -220 -4 -41 -15 -92 -24 -112 -23 -54 -7 -71
76 -76 56 -4 69 -1 97 19 33 25 190 220 190 237 0 5 6 15 14 21 8 6 22 39 32
72 18 59 20 60 49 55 17 -3 130 -11 252 -17 174 -9 234 -9 275 0 29 7 112 16
183 21 72 5 179 18 238 29 155 30 152 31 228 -42 117 -111 214 -194 247 -211
17 -9 32 -23 32 -31 0 -10 11 -15 34 -15 19 0 41 -6 48 -13 7 -7 25 -20 40
-30 23 -14 26 -14 22 -2 -8 20 20 11 128 -38 86 -39 88 -48 61 -247 -12 -91
-31 -239 -43 -330 -11 -91 -25 -208 -32 -260 -19 -145 -16 -515 5 -720 44
-431 62 -512 149 -662 55 -95 93 -181 120 -268 5 -19 29 -64 52 -100 23 -36
53 -83 66 -105 32 -53 114 -140 167 -176 104 -72 291 -120 473 -122 132 -2
190 12 315 77 84 42 116 66 197 147 91 90 98 100 118 168 20 65 22 88 18 234
-6 197 -18 240 -89 312 -36 37 -78 65 -157 103 -59 28 -126 56 -149 62 l-43
11 20 37 c13 23 20 56 20 88 0 70 -42 123 -149 188 -104 62 -152 79 -229 80
l-64 1 -59 -63 c-45 -48 -59 -70 -59 -93 0 -60 47 -119 95 -119 43 0 65 27 65
77 0 75 30 75 161 1 89 -51 103 -68 88 -102 -7 -15 -22 -29 -35 -32 -48 -12
-76 -63 -61 -109 5 -16 -3 -26 -43 -52 -107 -70 -175 -197 -168 -313 5 -77 25
-124 83 -188 55 -61 113 -92 174 -92 56 0 81 21 81 67 0 37 -23 58 -84 79 -81
28 -132 121 -107 197 23 68 68 114 153 157 44 22 95 40 112 40 40 0 238 -101
265 -136 29 -36 44 -145 39 -271 -4 -98 -7 -115 -33 -159 -34 -58 -79 -102
-155 -152 -135 -87 -239 -115 -384 -101 -150 14 -252 46 -344 108 -42 27 -66
55 -109 126 -31 49 -64 100 -74 113 -10 13 -25 47 -35 75 -9 29 -20 57 -24 62
-3 6 -12 28 -18 50 -6 22 -28 67 -48 100 -55 92 -100 185 -112 235 -12 50 -33
214 -58 445 -20 190 -29 459 -17 505 10 34 10 33 26 -45 24 -115 52 -197 102
-300 62 -129 112 -245 119 -280 8 -32 73 -183 108 -249 35 -65 90 -138 150
-198 66 -67 107 -77 147 -34 34 36 26 83 -21 116 -81 56 -180 224 -254 430
-34 96 -80 205 -123 290 -42 83 -54 118 -106 330 -37 145 -39 196 -11 219 10
8 16 -2 30 -47 21 -67 86 -219 147 -347 35 -73 57 -104 116 -162 41 -39 102
-88 136 -109 54 -33 71 -38 139 -42 130 -7 207 31 281 140 45 66 67 176 48
245 -16 58 -84 142 -122 150 -16 3 -32 10 -35 14 -3 5 -20 9 -38 9 -41 0 -69
-29 -69 -70 0 -33 37 -80 63 -80 21 0 59 -40 61 -65 8 -82 -36 -163 -102 -189
-59 -24 -95 -20 -158 18 -119 73 -180 158 -263 366 -16 41 -33 80 -38 85 -4 6
-22 57 -39 114 -35 118 -42 229 -16 251 23 19 19 73 -8 98 -34 32 -67 28 -108
-14 -33 -34 -34 -37 -37 -132 l-4 -97 -39 3 c-21 2 -39 7 -39 11 0 19 62 460
68 482 l7 26 80 -14 c44 -7 109 -21 145 -31 54 -14 102 -17 279 -14 248 3 337
17 549 88 73 24 146 44 161 44 35 0 61 28 61 67 0 44 -26 61 -111 73 -73 10
-175 37 -194 51 -5 4 -30 14 -55 22 -25 9 -76 28 -115 42 -38 15 -83 30 -98
35 -16 5 -34 13 -40 18 -7 5 -37 16 -67 26 -30 9 -69 25 -87 34 -17 9 -59 32
-93 50 -86 46 -173 102 -183 118 -4 7 -24 16 -45 20 -42 7 -142 54 -142 66 0
4 -6 8 -12 8 -7 0 -21 7 -31 14 -15 12 -16 16 -3 41 9 18 12 35 6 49 -4 12 -4
58 0 101 4 44 7 117 6 162 -1 46 0 83 2 83 2 0 16 -8 30 -19 15 -10 55 -32 89
-50 34 -17 65 -37 70 -44 4 -8 27 -24 51 -37 23 -13 42 -27 42 -30 0 -4 10 -5
23 -3 16 3 38 -7 70 -31 26 -20 51 -36 56 -36 22 0 71 -37 71 -53 0 -10 4 -16
9 -13 5 4 47 -8 93 -25 187 -69 301 -85 683 -95 264 -7 297 -4 349 37 35 27
36 86 4 116 -20 18 -129 73 -208 105 -14 5 -50 23 -80 39 -104 57 -265 132
-328 153 l-63 22 115 28 c139 35 194 32 421 -21 148 -34 152 -35 401 -36 235
-2 253 -1 273 17 26 24 28 77 4 99 -18 16 -259 64 -462 93 -140 20 -299 84
-209 84 53 0 321 37 468 65 220 42 321 66 394 96 37 16 72 29 78 29 22 0 236
153 318 229 119 109 300 325 405 482 132 198 235 435 235 542 0 82 -60 100
-145 44 -28 -18 -104 -64 -170 -102 -66 -38 -161 -95 -211 -126 -195 -121
-562 -268 -799 -319 -55 -12 -144 -24 -198 -27 l-98 -6 39 64 c79 130 262 479
262 499 0 14 68 158 95 201 42 66 112 197 159 299 14 30 64 123 112 205 133
230 191 341 349 670 32 66 73 151 92 189 18 38 33 83 33 101 0 57 -52 81 -117
53 -43 -19 -199 -157 -288 -255 -80 -88 -102 -116 -279 -358 -52 -71 -104
-139 -115 -150 -25 -26 -91 -113 -91 -121 0 -7 -83 -108 -92 -112 -4 -2 -31
-33 -61 -70 -31 -37 -76 -89 -102 -117 -26 -27 -65 -72 -87 -99 -21 -27 -78
-85 -126 -128 -85 -77 -275 -228 -287 -228 -4 0 -27 -15 -53 -32 -26 -18 -65
-42 -87 -54 -22 -11 -49 -25 -60 -32 -44 -25 -183 -80 -230 -90 -151 -34 -330
-41 -460 -18 -147 27 -187 40 -309 101 -115 57 -122 63 -145 109 -20 40 -22
50 -10 56 47 27 102 76 126 111 72 107 83 129 109 204 24 73 27 92 26 230 -2
231 -20 323 -82 415 -46 67 -90 109 -150 143 -54 31 -240 102 -293 112 -30 6
-37 11 -37 31 0 13 -4 32 -9 42 -5 9 -15 37 -22 62 -7 25 -41 100 -76 166
l-62 122 33 6 c55 10 86 41 86 85 0 20 -4 41 -9 47 -5 5 4 35 23 74 39 79 93
214 102 255 4 17 10 35 14 40 12 16 96 303 109 374 14 70 25 185 40 416 15
213 29 329 51 410 10 39 26 108 35 155 36 181 42 207 48 216 3 5 15 79 26 164
12 85 30 216 41 290 11 74 24 191 30 260 6 69 15 167 20 217 14 154 -12 586
-50 838 -11 77 -25 181 -30 230 -28 247 -74 449 -150 655 -17 47 -42 117 -55
155 -72 212 -290 660 -432 890 -31 50 -68 109 -82 133 -34 57 -128 172 -206
252 -53 55 -255 329 -255 346 0 17 -172 213 -242 276 -45 40 -112 101 -148
136 -37 34 -71 62 -76 62 -5 0 -32 23 -59 50 -27 28 -54 50 -59 50 -6 0 -47
35 -91 79 -79 77 -227 195 -355 281 -36 24 -76 51 -90 60 -37 25 -110 61 -141
70 -19 6 -37 3 -58 -8z m1686 -1769 c4 -10 19 -37 35 -60 15 -23 28 -45 28
-49 0 -4 6 -15 14 -23 14 -16 105 -188 226 -426 82 -162 221 -516 281 -715 32
-107 75 -333 89 -475 4 -44 19 -161 33 -260 14 -99 31 -245 37 -325 12 -153
16 -482 6 -498 -3 -5 -10 -69 -16 -143 -11 -136 -83 -665 -100 -729 -18 -72
-40 -167 -50 -225 -7 -33 -18 -82 -26 -110 -22 -74 -44 -244 -50 -380 -3 -66
-9 -150 -15 -187 -5 -37 -9 -87 -9 -111 0 -102 -80 -438 -126 -525 -8 -15 -14
-34 -14 -43 0 -14 -8 -16 -43 -12 -38 5 -46 2 -64 -20 -25 -32 -160 -102 -235
-121 -31 -8 -88 -26 -127 -40 -83 -30 -320 -99 -415 -121 -37 -9 -136 -20
-219 -25 -84 -5 -175 -13 -203 -18 -64 -10 -803 4 -946 18 -58 6 -132 19 -164
30 -60 21 -326 79 -399 88 -22 2 -45 12 -52 21 -12 15 -81 154 -208 416 -29
61 -81 167 -114 236 -34 69 -61 129 -61 134 0 5 -6 16 -13 24 -8 9 -20 32 -27
51 -7 19 -39 89 -70 155 -31 66 -65 138 -74 160 -9 22 -21 48 -26 57 -6 10
-10 22 -10 27 0 6 -13 38 -29 73 -35 76 -50 116 -61 160 -5 18 -21 76 -35 128
-15 52 -37 140 -51 195 -67 277 -64 262 -99 580 -8 77 -24 212 -36 300 -11 88
-24 203 -29 255 -6 52 -15 126 -20 164 -11 71 -16 490 -6 516 3 8 10 114 15
235 6 121 16 254 22 295 17 107 92 405 118 470 12 30 29 75 37 100 16 47 42
104 138 302 65 134 46 128 192 64 109 -49 236 -76 354 -76 95 0 320 20 441 39
35 6 129 15 209 21 185 13 345 27 440 39 41 5 147 12 235 16 254 10 550 51
719 100 176 51 424 164 508 230 49 40 56 42 65 18z m238 -5545 c-40 -78 -71
-108 -115 -108 -36 0 -61 -17 -72 -50 -10 -27 -130 -59 -593 -156 -38 -8 -108
-23 -155 -34 -222 -50 -576 -87 -714 -76 -205 17 -418 48 -527 77 -20 5 -44 9
-52 9 -9 0 -41 9 -72 21 -43 16 -55 25 -55 41 0 34 -29 58 -70 58 -20 0 -41 5
-47 11 -6 6 -27 11 -47 12 -27 1 -44 10 -71 37 l-35 36 77 -14 c43 -8 123 -27
178 -43 55 -17 145 -34 200 -39 142 -14 918 -29 990 -19 33 5 128 13 210 19
187 12 362 52 640 144 61 20 139 46 175 58 36 12 90 34 120 49 30 15 56 26 58
24 2 -1 -9 -27 -23 -57z m-127 -320 c28 -36 117 -209 131 -257 7 -23 15 -49
17 -56 4 -8 -15 -16 -57 -24 -110 -22 -232 -61 -316 -101 -65 -32 -99 -57
-163 -122 -102 -102 -131 -145 -158 -228 -37 -118 -43 -154 -45 -260 -2 -117
18 -197 76 -295 61 -103 179 -212 292 -270 53 -27 354 -115 394 -115 11 0 23
-4 26 -10 10 -16 67 -12 87 7 10 9 18 27 18 40 0 12 1 23 3 23 1 0 27 9 57 20
82 30 94 27 111 -22 27 -85 156 -177 345 -249 200 -76 532 -90 759 -32 89 22
304 124 400 188 193 131 388 298 526 450 82 91 228 262 281 328 31 40 78 98
105 131 26 32 55 69 63 82 19 29 221 298 280 372 43 55 72 84 78 78 2 -3 -46
-103 -155 -320 -18 -38 -61 -113 -93 -168 -33 -54 -60 -101 -60 -104 0 -2 -24
-44 -54 -93 -30 -49 -57 -99 -61 -112 -10 -32 -118 -241 -143 -276 -28 -40
-88 -161 -116 -235 -33 -89 -189 -389 -247 -476 -16 -24 -29 -45 -29 -48 0 -3
-11 -20 -25 -38 -14 -18 -25 -37 -25 -41 0 -28 -282 -358 -385 -451 -138 -126
-262 -175 -460 -181 -165 -6 -286 17 -410 77 -81 39 -85 42 -85 74 0 19 -7 40
-17 48 -24 22 -84 37 -108 28 -11 -4 -23 -6 -26 -4 -3 2 -21 34 -40 71 -52
104 -270 318 -399 392 -120 69 -196 95 -348 121 -74 13 -121 16 -136 10 -33
-12 -66 -62 -66 -98 0 -28 4 -32 48 -45 27 -8 52 -10 58 -5 14 10 129 -6 199
-29 130 -42 280 -139 400 -261 45 -46 92 -103 104 -127 19 -38 97 -105 122
-105 4 0 5 -9 2 -19 -6 -24 25 -94 63 -142 39 -50 276 -320 343 -392 85 -90
185 -160 326 -230 72 -36 141 -68 155 -72 38 -11 253 -107 270 -121 8 -6 38
-23 65 -37 l50 -26 -45 -1 c-69 0 -355 19 -437 30 -39 5 -89 16 -110 24 -21 7
-75 27 -121 44 -45 16 -99 41 -120 56 -21 14 -44 26 -50 26 -7 0 -43 22 -80
49 -37 26 -83 56 -102 66 -76 39 -123 80 -214 188 -52 63 -134 153 -183 201
-170 170 -221 210 -371 290 -200 107 -256 124 -293 90 -16 -14 -20 -12 -58 40
-23 30 -41 59 -41 64 0 18 -39 43 -69 44 -17 1 -40 -7 -50 -16 -42 -38 -34
-63 70 -218 61 -90 90 -148 124 -249 13 -36 35 -85 50 -109 15 -24 28 -48 29
-54 5 -30 69 -133 88 -141 24 -11 52 -55 142 -228 33 -64 67 -129 74 -143 16
-30 188 -203 257 -259 28 -22 56 -45 63 -52 7 -7 19 -13 26 -13 17 0 231 -111
391 -204 76 -43 151 -83 168 -89 28 -9 71 -24 197 -72 19 -7 62 -23 95 -36 99
-37 115 -44 115 -50 0 -3 -54 -16 -120 -29 -108 -21 -210 -29 -280 -22 -14 1
-50 0 -80 -4 -41 -4 -96 2 -215 25 -208 41 -264 57 -355 102 -42 20 -103 46
-135 58 -112 38 -144 50 -176 70 -42 25 -209 170 -209 181 0 13 -60 70 -102
96 -23 15 -38 32 -38 44 0 11 -21 47 -47 81 -27 34 -66 87 -87 118 -22 31 -51
70 -65 87 -14 17 -46 60 -71 95 -49 68 -170 207 -318 364 -52 55 -112 124
-134 153 -32 43 -44 52 -70 52 -33 0 -68 -24 -68 -46 0 -6 -16 -31 -35 -54
-19 -23 -35 -47 -35 -53 0 -7 -16 -38 -35 -70 -19 -32 -35 -70 -35 -85 0 -15
-10 -47 -21 -72 -12 -25 -27 -65 -34 -90 -7 -25 -20 -67 -28 -95 -8 -27 -51
-124 -95 -215 -81 -165 -97 -203 -134 -315 -28 -89 -78 -185 -95 -185 -12 0
-14 8 -10 33 3 17 1 50 -4 72 -5 22 -14 75 -20 118 -7 42 -15 77 -19 77 -17 0
-50 173 -71 373 -10 96 -10 150 2 295 7 97 14 216 14 264 0 78 -2 89 -24 112
-14 14 -33 26 -43 26 -11 0 -18 7 -18 18 0 31 -44 64 -81 60 -34 -3 -77 -47
-232 -237 -33 -39 -64 -71 -70 -71 -6 0 -45 -35 -87 -77 -79 -82 -211 -201
-241 -218 -29 -17 -245 -214 -360 -327 -97 -97 -112 -108 -143 -108 -33 0 -36
2 -36 29 0 20 9 37 30 54 17 14 30 30 30 36 0 6 5 11 12 11 20 0 177 171 183
200 3 14 30 64 60 110 30 46 55 88 55 95 0 6 20 32 44 58 28 28 67 90 101 159
80 160 113 216 136 228 25 14 26 85 2 112 -24 27 -77 24 -101 -7 -12 -15 -23
-21 -27 -15 -3 5 -15 10 -26 10 -10 0 -19 5 -19 12 0 6 -10 22 -22 35 -49 52
-120 14 -221 -119 -30 -40 -140 -159 -243 -265 -165 -167 -205 -201 -314 -273
-69 -45 -156 -109 -195 -143 -38 -34 -87 -75 -110 -91 l-40 -30 28 35 c15 19
48 65 75 102 26 37 75 107 108 155 77 109 159 266 169 320 6 35 19 53 90 121
46 43 120 107 164 142 73 59 110 82 226 142 22 11 66 38 97 59 31 21 60 38 64
38 7 0 67 43 124 88 15 12 36 22 46 22 51 0 75 88 34 125 -32 29 -102 26 -137
-6 -15 -15 -59 -47 -98 -73 -38 -25 -87 -58 -108 -72 -21 -15 -57 -36 -80 -49
-91 -49 -144 -79 -192 -111 -48 -32 -314 -266 -345 -304 -31 -38 -118 -95
-195 -128 -44 -18 -84 -37 -90 -41 -5 -4 -39 -20 -74 -35 -51 -21 -73 -25
-106 -20 -31 4 -53 1 -80 -12 -33 -15 -58 -16 -219 -11 -218 8 -297 27 -464
112 -127 64 -142 76 -142 103 0 27 -45 62 -80 62 -20 0 -42 15 -83 59 -31 33
-61 70 -67 83 -10 23 -19 38 -51 88 -9 14 -28 53 -43 87 -14 34 -46 104 -71
155 -26 51 -58 127 -72 168 -76 222 -190 400 -391 613 -76 82 -231 211 -294
247 -14 8 -59 35 -100 59 -69 43 -202 111 -278 144 -19 9 -55 24 -80 35 -123
54 -503 158 -654 178 -25 4 -46 10 -46 15 0 20 94 68 205 103 139 43 183 49
331 43 231 -9 342 -46 544 -182 126 -85 185 -132 304 -245 89 -85 320 -345
386 -435 24 -33 110 -127 191 -210 128 -130 249 -280 249 -307 0 -5 16 -33 34
-63 19 -30 44 -72 55 -94 33 -63 117 -158 167 -187 124 -73 344 -100 554 -70
290 42 403 75 575 167 85 46 169 101 245 162 153 123 458 425 508 505 22 34
63 87 91 118 49 54 54 56 90 51 22 -2 53 -15 71 -28 28 -21 45 -24 144 -27
118 -4 290 17 352 43 53 22 146 89 191 138 46 50 109 175 151 302 24 72 27 94
26 220 0 236 -42 347 -186 497 -48 50 -84 76 -143 105 -95 46 -203 88 -265
104 l-45 11 25 20 c14 12 48 32 77 45 l52 24 88 -16 c125 -23 259 -41 412 -56
201 -19 541 11 811 71 47 11 121 26 165 35 44 9 136 30 205 45 69 16 157 36
195 44 39 8 95 24 125 35 67 24 75 24 88 9z m-2170 -424 c220 -86 293 -139
363 -261 42 -73 73 -223 66 -323 -8 -126 -104 -363 -166 -411 -17 -13 -44 -34
-60 -46 -15 -12 -41 -27 -57 -34 -42 -16 -190 -39 -253 -39 -45 0 -56 4 -73
25 -15 20 -28 25 -64 25 -27 0 -44 5 -44 12 0 21 -33 48 -58 48 -14 0 -41 -5
-62 -11 -32 -10 -42 -8 -81 11 -85 44 -133 95 -183 193 -88 173 -107 319 -59
455 54 151 137 239 308 323 89 43 149 56 273 58 68 1 96 -4 150 -25z m2456
-60 c89 -23 261 -93 306 -124 14 -10 43 -43 64 -74 32 -46 41 -72 52 -139 28
-170 13 -395 -29 -447 -7 -8 -22 -32 -32 -53 -11 -21 -36 -54 -55 -73 -39 -39
-142 -94 -177 -94 -12 0 -73 -14 -134 -31 -90 -25 -116 -29 -136 -20 -31 14
-76 14 -91 -1 -9 -9 -22 -8 -54 1 -162 47 -274 113 -344 203 -47 61 -84 129
-84 156 0 10 -5 23 -12 30 -18 18 -11 170 11 249 29 104 38 121 94 191 89 109
184 164 370 212 130 34 167 36 251 14z m3590 -1421 c-90 -221 -258 -457 -494
-693 -168 -169 -326 -260 -535 -309 -323 -75 -598 -111 -853 -112 -263 -1
-427 17 -326 35 65 12 219 91 291 149 87 70 216 204 326 338 l87 107 157 5
c155 5 229 16 383 59 281 77 514 180 810 359 90 54 165 99 167 99 1 0 -5 -17
-13 -37z m-2671 -1084 c51 -10 130 -19 177 -19 84 0 85 0 86 -26 2 -34 30 -63
81 -86 40 -18 131 -29 343 -44 83 -5 86 -6 107 -38 l21 -33 -91 5 c-76 3 -110
0 -197 -22 -135 -33 -176 -33 -286 4 -49 17 -105 32 -124 33 -29 2 -43 13
-102 82 -38 44 -87 102 -110 129 -35 41 -38 47 -19 41 13 -4 64 -15 114 -26z
m-3889 -144 c-16 -12 -60 -68 -99 -123 -38 -55 -71 -99 -73 -97 -10 10 62 140
94 169 26 24 36 41 36 62 -1 16 4 39 10 51 11 21 11 21 36 -9 l25 -30 -29 -23z
m-2049 -42 c173 -93 327 -142 450 -143 38 0 55 -4 45 -9 -22 -12 -229 -65
-425 -107 -157 -34 -182 -37 -325 -36 -125 0 -180 5 -285 26 -138 28 -332 83
-481 138 l-91 33 126 0 c132 0 185 7 416 50 184 34 335 78 413 119 24 13 29
13 47 -4 11 -10 61 -40 110 -67z m5150 -45 c6 -13 24 -29 41 -36 36 -16 90
-95 77 -114 -4 -7 -8 -95 -9 -196 0 -103 -5 -187 -10 -192 -6 -6 -29 9 -63 44
-60 60 -54 52 -137 213 -68 130 -102 193 -114 208 -6 7 2 15 18 22 15 6 61 25
102 42 41 16 77 31 80 31 3 0 10 -10 15 -22z m-2385 -97 c0 -4 33 -14 74 -20
l74 -12 5 -152 c7 -160 18 -280 37 -386 6 -35 10 -65 8 -66 -7 -6 -230 39
-413 84 -110 27 -243 59 -295 71 -52 12 -102 25 -111 28 -13 5 7 29 88 102 58
52 112 98 121 101 10 4 62 47 117 96 188 166 179 160 240 162 30 0 55 -3 55
-8z m1336 -208 c43 -49 95 -110 114 -136 19 -26 52 -69 73 -95 20 -26 37 -50
37 -54 0 -5 27 -42 60 -84 33 -41 60 -79 60 -82 0 -14 -360 -68 -505 -77 -105
-6 -438 8 -467 20 -15 6 -13 13 12 63 16 31 46 93 66 137 21 44 46 92 56 106
16 24 22 46 64 211 l17 67 141 4 c78 1 153 4 167 5 20 2 41 -15 105 -85z"/>
        <path d="M7370 15243 c-113 -18 -259 -49 -330 -69 -455 -131 -736 -375 -858
-744 -57 -170 -62 -299 -22 -555 33 -204 67 -319 139 -455 22 -41 64 -122 93
-179 88 -173 219 -293 369 -339 206 -63 418 -78 719 -49 264 24 427 67 610
160 204 103 314 203 385 350 53 109 70 184 86 367 16 188 -1 410 -43 565 -15
55 -88 237 -102 255 -7 8 -18 28 -25 44 -10 25 -46 84 -97 161 -8 11 -45 68
-84 126 -86 129 -182 224 -270 266 -119 58 -163 73 -248 88 -77 14 -260 18
-322 8z m303 -148 c80 -17 250 -95 291 -133 75 -72 262 -352 334 -502 94 -195
127 -353 125 -590 -2 -286 -52 -461 -166 -577 -28 -29 -55 -53 -60 -53 -5 0
-29 -14 -54 -31 -67 -44 -207 -113 -293 -142 -172 -59 -459 -94 -521 -63 -40
20 -57 20 -105 0 -20 -9 -51 -14 -68 -11 -17 2 -43 0 -59 -5 -44 -16 -250 26
-352 72 -79 36 -171 137 -231 255 -28 55 -70 136 -93 180 -23 44 -52 116 -66
160 -56 185 -90 447 -74 578 9 75 50 205 84 267 11 19 25 48 32 63 16 37 92
134 152 196 214 220 819 401 1124 336z"/>
        <path d="M7145 14749 c-178 -18 -341 -108 -409 -223 -71 -121 -116 -357 -119
-626 -2 -139 1 -174 17 -220 64 -189 127 -259 318 -349 177 -84 235 -96 423
-86 83 4 193 9 245 11 78 2 109 8 173 33 230 91 347 255 363 510 12 184 -38
530 -89 619 -35 63 -110 146 -173 193 -69 53 -207 112 -308 133 -85 17 -298
20 -441 5z m391 -139 c117 -19 278 -101 342 -174 60 -68 79 -116 108 -261 36
-189 39 -408 6 -499 -28 -77 -72 -144 -117 -179 -48 -38 -150 -85 -208 -96
-52 -9 -135 -4 -154 11 -17 14 -70 13 -88 -2 -11 -9 -31 -10 -72 -4 -68 9 -82
7 -104 -12 -24 -21 -88 -4 -229 63 -159 75 -187 104 -245 253 -37 92 -9 490
44 642 45 129 86 173 210 224 97 39 366 57 507 34z"/>
        <path d="M9198 13876 c-14 -8 -43 -19 -65 -26 -46 -15 -114 -60 -167 -109 -61
-57 -226 -259 -226 -276 0 -9 -12 -26 -27 -39 -46 -40 -27 -136 27 -136 10 0
42 -11 71 -25 131 -59 259 -74 444 -50 200 25 245 46 245 114 0 69 -82 109
-124 62 -10 -11 -30 -21 -44 -23 -26 -3 -28 0 -49 87 -13 50 -32 102 -43 117
-11 15 -20 32 -20 37 0 5 -10 22 -23 38 -44 52 -42 59 26 83 34 12 72 32 85
43 27 25 30 77 4 100 -23 21 -78 22 -114 3z m-92 -363 c24 -42 37 -81 41 -118
l6 -56 -74 6 c-75 6 -170 29 -200 48 -15 9 -8 21 49 91 108 133 102 129 124
109 11 -10 35 -46 54 -80z"/>
        <path d="M9239 12947 c-25 -23 -93 -73 -150 -112 -57 -38 -121 -84 -142 -102
-49 -43 -70 -42 -92 5 -51 108 -159 222 -210 222 -39 0 -68 -30 -68 -70 0 -21
15 -45 59 -93 41 -44 78 -102 123 -188 35 -68 70 -131 78 -141 13 -14 11 -17
-19 -26 -18 -6 -58 -16 -88 -22 -145 -31 -200 -61 -200 -110 0 -15 10 -36 24
-49 30 -29 51 -26 231 23 127 35 276 67 404 87 76 11 101 30 101 74 0 68 -72
85 -217 52 l-61 -15 -31 32 c-17 18 -31 35 -31 38 0 8 105 85 225 166 50 34
116 84 148 112 50 46 57 56 57 89 0 81 -68 95 -141 28z"/>
        <path d="M9030 12022 c-53 -16 -78 -86 -43 -124 15 -17 15 -18 0 -18 -10 0
-34 -15 -55 -34 -21 -19 -56 -41 -77 -50 -59 -22 -205 -57 -215 -51 -4 3 -11
23 -15 44 -8 48 -33 72 -75 73 -36 1 -71 -28 -70 -58 2 -80 18 -253 25 -269
15 -37 38 -55 70 -55 43 0 65 27 65 78 0 37 3 42 23 42 34 0 240 56 278 75 19
10 46 29 61 42 26 25 48 24 48 -1 0 -42 83 -61 115 -26 19 22 18 63 -8 198
-19 98 -70 152 -127 134z"/>
        <path d="M6563 9760 c-51 -26 -139 -117 -158 -165 -18 -41 -20 -187 -4 -251 8
-29 23 -54 46 -74 32 -28 38 -30 119 -30 108 0 219 17 266 41 67 34 96 96 105
223 10 151 -19 198 -148 243 -104 36 -173 40 -226 13z"/>
        <path d="M9029 9687 c-69 -34 -137 -161 -154 -287 -5 -34 -1 -60 16 -105 38
-105 69 -125 193 -125 77 0 90 3 153 36 103 53 139 93 152 169 21 121 16 159
-33 235 -25 38 -55 74 -68 81 -12 7 -66 14 -119 15 -83 3 -102 1 -140 -19z"/>
        <path d="M6725 5556 c-52 -69 -64 -121 -75 -333 -5 -109 -10 -274 -10 -368 0
-227 -32 -426 -120 -765 -22 -85 -47 -186 -56 -224 -23 -108 -118 -407 -178
-566 -70 -183 -169 -379 -221 -439 -22 -25 -67 -80 -100 -121 -86 -106 -137
-153 -249 -227 -210 -138 -306 -173 -477 -173 -146 0 -242 27 -345 98 -80 55
-94 85 -73 154 12 38 21 47 71 72 53 26 61 28 102 17 25 -6 55 -11 68 -11 15
-1 30 -12 43 -33 24 -39 75 -49 106 -21 32 29 26 96 -12 139 -18 20 -41 41
-52 46 -22 13 -115 23 -203 23 -119 0 -241 -89 -263 -193 -14 -66 -14 -110 0
-167 16 -61 100 -138 210 -191 132 -64 188 -75 370 -71 l156 3 -38 -45 c-52
-61 -79 -125 -79 -186 0 -103 57 -202 155 -270 219 -150 396 -182 572 -103 24
10 45 19 48 19 23 0 100 47 153 93 130 113 221 235 276 368 19 46 44 106 56
133 12 26 61 163 110 305 110 320 122 355 160 466 17 50 40 124 51 165 11 41
33 115 50 163 84 246 118 457 120 737 1 307 -9 1096 -15 1165 -5 45 -2 66 9
80 21 28 19 79 -4 99 -26 24 -85 25 -109 2 -31 -27 -45 -96 -38 -183 7 -89 8
-175 7 -570 -1 -155 3 -322 9 -371 6 -59 7 -157 0 -288 -11 -249 -32 -361
-116 -634 -82 -264 -136 -434 -170 -525 -18 -49 -36 -103 -40 -119 -4 -16 -13
-41 -20 -55 -8 -14 -14 -30 -14 -34 0 -17 -120 -346 -161 -442 -55 -128 -111
-215 -197 -304 -49 -50 -86 -78 -128 -97 -32 -14 -79 -35 -104 -47 -26 -12
-73 -22 -111 -25 -81 -5 -164 25 -284 103 -65 42 -85 61 -104 99 -27 56 -24
91 15 149 28 43 135 117 169 117 12 0 40 -16 62 -35 69 -59 143 -42 143 33 0
26 -10 40 -61 82 -33 27 -69 50 -79 50 -43 0 -24 22 72 84 183 116 402 364
514 580 100 193 256 634 307 866 8 36 33 137 56 225 48 184 95 414 110 536 5
46 12 215 15 374 7 340 17 448 46 487 26 35 27 99 2 121 -32 29 -77 22 -107
-17z"/>
        <path d="M8498 5553 c-24 -28 -30 -59 -19 -100 23 -86 40 -327 45 -648 7 -406
19 -618 45 -803 19 -134 34 -266 46 -406 15 -180 116 -579 237 -941 44 -132
97 -309 119 -394 24 -98 53 -185 80 -240 37 -77 55 -99 169 -212 70 -69 153
-142 184 -163 57 -38 58 -38 144 -34 115 6 189 35 260 102 58 54 110 129 131
186 19 50 26 280 12 345 -17 74 -64 117 -149 135 -107 22 -190 2 -269 -65 -35
-29 -41 -31 -58 -19 -10 8 -35 14 -55 14 -47 0 -73 -26 -68 -71 2 -28 13 -40
66 -76 35 -24 75 -43 89 -43 17 0 45 18 84 55 71 65 120 84 178 67 45 -14 51
-27 51 -128 0 -102 -15 -170 -53 -234 -29 -48 -42 -60 -107 -92 -102 -51 -142
-51 -208 1 -27 21 -90 78 -141 126 -114 109 -156 187 -200 377 -17 70 -39 153
-50 185 -10 32 -26 81 -34 108 -8 28 -34 102 -57 165 -69 190 -173 595 -203
795 -9 55 -21 159 -27 230 -7 72 -20 186 -31 255 -25 167 -38 407 -45 805 -5
316 -23 574 -45 660 -14 54 -35 75 -74 75 -18 0 -39 -8 -47 -17z"/>
        <path d="M9029 5414 c-23 -25 -24 -32 -34 -257 -15 -349 -12 -673 8 -787 9
-52 21 -133 27 -180 24 -194 33 -240 67 -345 39 -122 117 -287 158 -335 7 -8
32 -51 56 -95 23 -44 54 -98 69 -120 15 -22 37 -67 50 -100 37 -96 138 -294
188 -370 55 -84 195 -266 267 -350 28 -33 70 -85 92 -115 57 -78 135 -147 196
-175 85 -39 245 -78 322 -79 156 -1 244 54 310 196 34 71 40 94 43 168 4 72 0
99 -23 175 -23 73 -35 98 -69 131 -47 48 -114 73 -218 81 -59 5 -74 2 -121
-21 -30 -14 -67 -26 -84 -26 -37 0 -63 -27 -63 -66 0 -44 64 -104 111 -104 29
0 43 8 72 40 26 29 43 40 64 40 35 0 123 -28 139 -44 7 -6 22 -42 34 -80 30
-91 24 -153 -21 -242 -29 -56 -41 -70 -76 -86 -72 -32 -177 -22 -305 28 -90
35 -133 67 -186 138 -26 35 -79 101 -117 147 -94 112 -225 283 -225 294 0 5
-9 18 -20 30 -25 27 -121 213 -167 324 -19 47 -50 111 -68 141 -18 30 -47 79
-64 108 -17 29 -31 54 -31 56 0 2 -16 28 -36 57 -106 157 -178 368 -198 579
-3 30 -13 102 -21 160 -29 193 -37 314 -31 470 19 493 17 468 37 486 32 28 25
84 -14 122 -42 41 -83 43 -118 6z"/>
        <path d="M7904 4249 c-17 -20 -19 -34 -14 -183 2 -88 4 -206 3 -261 -12 -1093
-3 -1211 113 -1549 30 -87 64 -198 75 -245 28 -112 111 -332 152 -400 52 -88
125 -161 192 -193 50 -23 73 -28 139 -28 l78 0 74 72 c66 64 74 75 74 109 0
46 -36 79 -85 79 -33 0 -65 -25 -65 -50 0 -27 -52 -70 -84 -70 -47 1 -109 33
-144 76 -70 85 -147 265 -197 463 -13 54 -45 155 -71 227 -113 313 -118 378
-111 1509 1 66 -1 188 -3 270 -3 133 -6 153 -23 173 -27 29 -77 30 -103 1z"/>
        <path d="M7444 4019 c-22 -24 -22 -16 -6 -369 16 -352 15 -544 -2 -725 -8 -82
-20 -206 -26 -275 -20 -216 -62 -407 -157 -710 -56 -178 -80 -228 -135 -273
l-42 -35 -17 28 c-23 37 -103 103 -136 112 -51 14 -108 -36 -95 -84 3 -11 26
-35 52 -54 29 -20 54 -49 65 -74 24 -53 83 -100 125 -100 27 0 49 15 127 86
52 48 102 103 112 123 27 54 94 257 140 426 72 261 87 354 127 800 14 158 16
248 10 538 -8 411 -19 563 -43 589 -22 25 -75 23 -99 -3z"/>
        <path d="M5305 1100 c3 -5 14 -10 23 -10 15 0 15 2 2 10 -20 13 -33 13 -25 0z"/>
    </g>
</svg>
